<svg xmlns="http://www.w3.org/2000/svg" xmlns:xlink="http://www.w3.org/1999/xlink" width="500" zoomAndPan="magnify" viewBox="0 0 375 374.999991" height="500" preserveAspectRatio="xMidYMid meet" version="1.0"><defs><g/></defs><g fill="#0074b0" fill-opacity="1"><g transform="translate(74.291191, 338.740576)"><g><path d="M 13.3125 0 L 13.3125 -16.453125 L 19.1875 -16.453125 C 24.414062 -16.453125 29.179688 -17.039062 33.484375 -18.21875 C 37.796875 -19.394531 41.257812 -21.875 43.875 -25.65625 C 46.488281 -29.445312 47.796875 -35 47.796875 -42.3125 L 47.796875 -235.421875 C 47.796875 -243.515625 46.550781 -249.519531 44.0625 -253.4375 C 41.582031 -257.351562 38.1875 -259.960938 33.875 -261.265625 C 29.570312 -262.578125 24.675781 -263.234375 19.1875 -263.234375 L 13.3125 -263.234375 L 13.3125 -279.6875 L 197.421875 -279.6875 L 199.390625 -211.140625 L 179.796875 -211.140625 L 177.84375 -227.984375 C 177.320312 -233.722656 175.945312 -239.007812 173.71875 -243.84375 C 171.5 -248.675781 168.171875 -252.59375 163.734375 -255.59375 C 159.296875 -258.59375 153.421875 -260.09375 146.109375 -260.09375 L 86.171875 -260.09375 L 86.171875 -155.90625 L 173.140625 -155.90625 L 173.140625 -136.703125 L 86.171875 -136.703125 L 86.171875 -19.59375 L 154.734375 -19.59375 C 162.566406 -19.59375 168.832031 -21.09375 173.53125 -24.09375 C 178.226562 -27.09375 181.882812 -31.007812 184.5 -35.84375 C 187.113281 -40.675781 188.8125 -45.960938 189.59375 -51.703125 L 191.9375 -68.546875 L 211.53125 -68.546875 L 208.78125 0 Z M 13.3125 0 "/></g></g></g></svg>